# xmcd
#
# Track frame offsets:
#	150
#	18369
#	46563
#	68494
#	87005
#	103630
#	130515
#	152000
#	173466
#	197768
#	217270
#	236273
#	253347
#	278918
#	292028
#	316888
#	332036
#
# Disc length: 4790 seconds
#
# Revision: 1
# Processed by: cddbd v1.5.2PL0 Copyright (c) Steve Scherf et al.
# Submitted via: EZCDAudioConverter 6.0.0.1
#
DISCID=e312b411
DTITLE=Various Artist - Akella Presents - vol.115 - Electric Blues  CD1
DYEAR=2017
DGENRE=Blues
TTITLE0=Scrapomatic - Moanin'
TTITLE1=Bryan Lee - My Lady Don't Love My Lady
TTITLE2=Griff - A Mama Cries
TTITLE3=Howard Tate - Buried Treasure
TTITLE4=Phil Carmen - We're On the Front Line
TTITLE5=Alex Jenkins and The Bombers - Over You
TTITLE6=Nitecry - Run For Cover
TTITLE7=Chris Watson Band - She's Wild
TTITLE8=Mick Kolassa - Nothin' Left To Lose
TTITLE9=Curtis Salgado - Got A Bad Feelin'
TTITLE10=Fast Eddie Clarke - Make My Day
TTITLE11=Texas Slim - Trouble Knockin'
TTITLE12=Jarekus Singleton - Crime Scene
TTITLE13=The King Brothers - Baby Let Me Come Back
TTITLE14=!hris Aaron - Born With The Blues
TTITLE15=Southside Slim - Sleepless Nights
TTITLE16=Gary Moore - I'll Play the Blues for You
EXTD=
EXTT0=
EXTT1=
EXTT2=
EXTT3=
EXTT4=
EXTT5=
EXTT6=
EXTT7=
EXTT8=
EXTT9=
EXTT10=
EXTT11=
EXTT12=
EXTT13=
EXTT14=
EXTT15=
EXTT16=
PLAYORDER=
